{"title":"Makara Manju (2011) Malayalam DvDRiP XVID AC3 5.1","uid":7122803,"size":1564534033,"categoryP":"video","categoryS":"movies","magnet":"?xt=urn:btih:df66573eade741bb94261d418248fbc6e6b22903&amp;dn=Makara+Manju+%282011%29+Malayalam+DvDRiP+XVID+AC3+5.1&amp;tr=udp%3A%2F%2Ftracker.openbittorrent.com%3A80&amp;tr=udp%3A%2F%2Fopen.demonii.com%3A1337&amp;tr=udp%3A%2F%2Ftracker.coppersurfer.tk%3A6969&amp;tr=udp%3A%2F%2Fexodus.desync.com%3A6969","seeders":1,"leechers":1,"uploader":"amanrulz","files":3,"time":1332424641,"description":"mastitorrents.com\n &lt;a href=&quot;\nhttp://mastitorrents.com/forums/index.php&quot; rel=&quot;nofollow&quot; target=&quot;_NEW&quot;&gt;\nhttp://mastitorrents.com/forums/index.php&lt;/a&gt;\n\nFormat : AVI\nFormat/Info : Audio Video Interleave\nFile size : 1.46 GiB\nDuration : 2h 6mn\nOverall bit rate : 1 654 Kbps\nVideo ID : 0\nFormat : MPEG-4 Visual\nFormat profile : Advanced Simple@L5\nFormat settings, BVOP : 2\nFormat settings, QPel : No\nFormat settings, GMC : No warppoints\nFormat settings, Matrix : Default (H.263)\nCodec ID : XVID\nCodec ID/Hint : XviD\nDuration : 2h 6mn\nBit rate : 1 199 Kbps\nWidth : 720 pixels\nHeight : 304 pixels\nDisplay aspect ratio : 2.35:1\nFrame rate : 23.976 fps\nColor space : YUV\nChroma subsampling : 4:2:0\nBit depth : 8 bits\nScan type : Progressive\nCompression mode : Lossy\nBits/(Pixel*Frame) : 0.228\nStream size : 1.06 GiB (72%)\nWriting library : XviD 1.2.1 (UTC 2008-12-04)\n\nAudio ID : 1\nFormat : AC-3\nFormat/Info : Audio Coding 3\nMode extension : CM (complete main)\nCodec ID : 2000\nDuration : 2h 6mn\nBit rate mode : Constant\nBit rate : 448 Kbps\nChannel(s) : 6 channels\nChannel positions : Front: L C R, Side: L R, LFE\nSampling rate : 48.0 KHz\nBit depth : 16 bits\nCompression mode : Lossy\nStream size : 404 MiB (27%)\nAlignment : Aligned on interleaves\nInterleave, duration : 64 ms (1.53 video frames)\nInterleave, preload duration : 192 ms","torrent":{"xt":"urn:btih:df66573eade741bb94261d418248fbc6e6b22903","amp;dn":"Makara+Manju+%282011%29+Malayalam+DvDRiP+XVID+AC3+5.1","amp;tr":["udp%3A%2F%2Ftracker.openbittorrent.com%3A80","udp%3A%2F%2Fopen.demonii.com%3A1337","udp%3A%2F%2Ftracker.coppersurfer.tk%3A6969","udp%3A%2F%2Fexodus.desync.com%3A6969"],"infoHash":"df66573eade741bb94261d418248fbc6e6b22903","infoHashBuffer":{"type":"Buffer","data":[223,102,87,62,173,231,65,187,148,38,29,65,130,72,251,198,230,178,41,3]},"announce":[],"urlList":[]}}